<svg width="868" height="662" viewBox="0 0 868 662" fill="none" xmlns="http://www.w3.org/2000/svg">
<path d="M0.878906 623.863C0.878906 638.238 234.879 655.77 461.359 660.949C706.906 666.57 828.746 646.309 828.746 631.93C828.746 617.551 637.602 597.82 411.062 597.82C184.523 597.82 0.878906 609.48 0.878906 623.863Z" fill="#D6E6ED"/>
<path d="M116.602 615.895L128.207 569.77L136.902 573.301L123.918 616.012L116.602 615.895Z" fill="#EE7461"/>
<path d="M115.34 622.191C116.187 622.57 117.074 622.859 117.984 623.055C124.191 624.395 156.801 631.145 158.371 625.961C160.105 620.238 151.781 605.23 125.523 611.191C104.629 615.934 111.672 620.531 115.34 622.191Z" fill="#562F5E"/>
<path d="M125.523 611.191C126.719 610.918 127.875 610.691 129 610.5C123.508 614.715 131.59 622.156 145.75 624.168C154.453 625.406 157.332 623.563 158.098 621.52C158.66 623.219 158.727 624.785 158.371 625.961C156.801 631.145 124.191 624.395 117.984 623.055C117.074 622.859 116.187 622.57 115.34 622.191C111.672 620.531 104.629 615.934 125.523 611.191Z" fill="#371443"/>
<path d="M63.7812 554.391L96.2969 519.648L102.191 526.949L70.125 558.039L63.7812 554.391Z" fill="#E15857"/>
<path d="M60.4883 557.547C60.9336 558.363 61.4688 559.121 62.082 559.82C66.2461 564.613 88.2891 589.551 92.6523 586.344C97.4805 582.805 99.8281 565.809 75.2422 554.848C55.6758 546.125 58.5469 554.023 60.4883 557.547Z" fill="#562F5E"/>
<path d="M75.2422 554.848C76.3594 555.344 77.4219 555.855 78.4336 556.379C71.5117 556.465 73.5078 567.258 83.6328 577.348C89.8555 583.555 93.2656 583.805 95.1016 582.625C94.5313 584.324 93.6445 585.621 92.6523 586.344C88.2891 589.551 66.2461 564.613 62.082 559.82C61.4688 559.121 60.9336 558.363 60.4883 557.547C58.5469 554.023 55.6758 546.125 75.2422 554.848Z" fill="#371443"/>
<path d="M209.426 272.391L211.414 426.754C211.434 428.391 210.77 429.961 209.578 431.086L94 540.332L83.7539 528.309L174.746 428.695L152.797 271.438L209.426 272.391Z" fill="#3086BE"/>
<path d="M125.465 271.023L155.5 447.555L121.387 583.73L137.359 587.836L181.387 446.637L191.59 271.695L125.465 271.023Z" fill="#4797D7"/>
<path d="M125.906 584.891L121.387 583.73L155.5 447.555L125.465 271.023L191.59 271.695L189.645 305.039C185.742 298.867 172.406 281.758 154.258 296.477C134.5 312.5 164.711 449.094 164.711 449.094L125.906 584.891Z" fill="#3086BE"/>
<path d="M180.512 446.27L189.258 297.484C189.27 297.285 189.332 297.09 189.445 296.922L194.773 288.879C195.117 288.355 195.824 288.211 196.348 288.559C196.871 288.906 197.016 289.609 196.672 290.133L191.512 297.926L182.781 446.512C182.773 446.582 182.766 446.652 182.746 446.723L179.473 459.543L176.375 462.465L180.512 446.27Z" fill="#1279A5"/>
<path d="M253.043 183.703L253.078 183.707C253.656 183.773 254.176 183.355 254.242 182.777C254.277 182.453 257.859 150.027 254.188 130.961C254.078 130.391 253.527 130.016 252.953 130.125C252.383 130.234 252.008 130.789 252.117 131.359C255.727 150.109 252.18 182.219 252.145 182.539C252.082 183.109 252.481 183.625 253.043 183.703Z" fill="#381144"/>
<path d="M250.109 184.918C250.109 184.918 227.062 272 214.484 285.863C214.484 285.863 154.805 288.855 120.324 268.867C120.324 268.867 112.043 180.242 125.367 144.332C138.695 108.422 164.609 104.121 216.258 105.898C216.258 105.898 241.973 115.281 295.633 173.539L250.109 184.918Z" fill="#562F5E"/>
<path d="M212.687 105.785C214.477 106.035 216.277 106.324 218.109 106.715C221.117 108.16 225.988 110.066 238.336 119.738C238.262 129.031 229.355 163.051 211.668 160.449C191.691 157.504 182.449 114.633 182.539 106.078C193.145 104.93 201.422 105.453 212.687 105.785Z" fill="#EDEDED"/>
<path d="M130.481 21.9219C158.367 5.87501 170.566 62.1953 189.492 66.7188L196.633 67.7852C195.367 60.3594 196.762 51.8555 204.199 43.3828C225.063 19.6367 263.469 39.9297 262.824 62.4297C262.188 84.9297 241.938 84.9492 241.938 84.9492L209.609 90.8281C209.609 90.8281 202.008 83.8711 198.262 73.7656L192.504 74.9961C192.504 74.9961 184.184 96.7422 159.668 91.0781C135.156 85.418 138.617 58.3203 117.957 74.9922C117.957 74.9922 102.59 37.9649 130.481 21.9219Z" fill="#4D4D4D"/>
<path d="M227.457 105.652C227.457 105.652 215.969 96.6719 200.527 96.4023L200.094 107.551L223.285 119.941L227.457 105.652Z" fill="#B8B8B8"/>
<path d="M128.918 39.9609C147.855 37.8242 146.855 58.0078 165.211 71.2422C183.566 84.4766 194.504 72.3711 194.504 72.3711L193.609 67.332L196.633 67.7852C195.367 60.3594 196.762 51.8555 204.199 43.3828C209.551 37.2969 216.055 34.1094 222.758 33.1055C215.824 36.2266 210.121 42.0586 212.004 51.3281C215.145 66.793 239.98 61.1992 239.98 61.1992C236.789 71.4023 219.242 86.2812 214.406 89.9531L209.609 90.8281C209.609 90.8281 202.008 83.8711 198.262 73.7656L192.504 74.9961C192.504 74.9961 184.184 96.7422 159.668 91.0781C135.156 85.418 138.617 58.3203 117.957 74.9922C117.957 74.9922 117.934 74.9375 117.902 74.8555C115.164 60.8594 114.879 41.543 128.918 39.9609Z" fill="#333333"/>
<path d="M202.633 113.504L212.148 78.7461L228.145 87.7109L219.055 122.43L210.848 127.785L202.633 113.504Z" fill="#EE7461"/>
<path d="M200.148 97.6992C200.148 97.6992 185.738 113.238 199.559 138.398C199.559 138.398 206.871 127.844 211.152 127.684L208.773 155.176L214.133 127.141C214.133 127.141 218.195 132.551 217.602 139.426C217.602 139.426 232.555 126.867 228.922 110.309L216.109 122.785L211.828 122.949L200.148 97.6992Z" fill="#D4D4D4"/>
<path d="M196.195 106.414C196.195 106.414 198.848 97.3242 200.527 96.4023C200.527 96.4023 207.305 116.699 213.969 122.863C213.969 122.863 202.43 123.73 199.773 132.824C199.773 132.824 193.16 116.809 196.195 106.414Z" fill="#EDEDED"/>
<path d="M227.457 105.652C227.457 105.652 223.664 118.645 213.969 122.863C213.969 122.863 219.711 127.355 218.738 135.531C218.738 135.531 233.906 117.395 227.457 105.652Z" fill="#EDEDED"/>
<path d="M201.836 81.1602C201.836 81.1602 194.875 70.2617 197.082 56.1914C197.082 56.1914 183.82 55.7031 186.477 70.2813C188.871 83.4336 201.836 81.1602 201.836 81.1602Z" fill="#CF1476"/>
<path d="M197.605 70.2227C199.102 76.8789 201.836 81.1602 201.836 81.1602C201.836 81.1602 188.871 83.4336 186.477 70.2812C186.246 69.0195 186.137 67.8828 186.125 66.8359C189.449 72.0391 196.195 70.5898 197.605 70.2227Z" fill="#B8006B"/>
<path d="M248.969 72.6953C248.969 72.6953 243.797 102.258 229.957 97.2461C216.113 92.2266 212.207 80.2422 212.207 80.2422C212.207 80.2422 201.207 79.0078 203.73 70.3711C206.25 61.7344 214.973 62.3047 215.977 69.0078C215.977 69.0078 230.215 72.6602 239.98 61.1992C239.98 61.1992 242.676 68.8906 248.969 72.6953Z" fill="#EE7461"/>
<path d="M225.336 87.543C225.336 87.543 231.551 86.4062 235.172 91.0547C235.172 91.0547 234.258 76.3984 225.336 87.543Z" fill="white"/>
<path d="M216.301 69.5977C216.336 69.6055 216.375 69.6133 216.414 69.6211C228.723 71.5937 237.031 64.6719 239.961 61.7031C242.965 70.043 251.633 74.832 252.023 75.043C252.48 75.2891 253.059 75.1211 253.309 74.6602C253.559 74.2031 253.391 73.6289 252.93 73.3789C252.836 73.3281 243.461 68.1406 241.297 59.6055L240.816 57.7188L239.629 59.2578C239.543 59.3672 231.047 70.0508 216.715 67.75C216.199 67.6719 215.711 68.0195 215.629 68.5352C215.555 69.0117 215.848 69.4648 216.301 69.5977Z" fill="#1A1A1A"/>
<path d="M226.035 95.5156C226.035 95.5156 219.211 91.4492 216.785 85.0156C216.785 85.0156 211.996 96.5117 223.711 104.219L226.035 95.5156Z" fill="#E15857"/>
<path d="M125.367 144.332C126.484 141.324 127.691 138.539 128.992 135.961C143.309 130.605 168.887 123.621 174.035 138.957C182.141 163.09 175.859 198.824 175.859 198.824L227.844 227.32C227.844 227.32 240.988 229.156 225.598 263.613C221.582 274.02 217.691 282.324 214.484 285.863C214.484 285.863 154.805 288.855 120.324 268.867C120.324 268.867 112.043 180.242 125.367 144.332Z" fill="#481F52"/>
<path d="M221.77 272.941C221.418 273.738 221.066 274.512 220.723 275.258C215.898 275.418 202.895 275.613 186.637 273.945C170.969 272.34 157.805 269.594 146.914 266.422C135.156 262.996 126.055 259.078 119.312 255.562C119.258 254.707 119.199 253.816 119.141 252.895C159.625 274.66 214.371 273.246 221.77 272.941Z" fill="#371443"/>
<path d="M249.547 187.254C249.547 187.254 254.398 146.434 245.184 129.578C243.266 126.059 241.18 122.402 238.902 120.168C238.902 120.168 292.812 122.055 303.906 120.789C315 119.52 376.5 109.598 376.5 109.598L380.457 122.668C380.457 122.668 327.188 166.715 311.445 171.004C295.703 175.297 249.547 187.254 249.547 187.254Z" fill="#4A1C53"/>
<path d="M867.172 320.188C867.172 143.367 723.664 0.0234375 546.645 0.0234375C369.625 0.0234375 226.117 143.367 226.117 320.188C226.117 497.012 369.625 640.355 546.645 640.355C723.664 640.355 867.172 497.012 867.172 320.188Z" fill="#FFB002"/>
<path d="M546.645 640.355C710.238 640.355 845.199 517.922 864.727 359.785C857.547 388.965 785.824 379.957 785.824 379.957L254.234 348.273C249.406 347.988 236.07 349.152 226.719 339.539C236.734 507.348 376.129 640.355 546.645 640.355Z" fill="#EF9500"/>
<path d="M791.438 320.188C791.438 158.875 670.93 28.1055 522.277 28.1055C373.625 28.1055 253.117 158.875 253.117 320.188C253.117 481.5 373.625 612.27 522.277 612.27C670.93 612.27 791.438 481.5 791.438 320.188Z" fill="#AF5A00"/>
<path d="M792.195 319.441C792.195 164.418 676.387 38.7461 533.523 38.7461C390.664 38.7461 274.852 164.418 274.852 319.441C274.852 474.465 390.664 600.137 533.523 600.137C676.387 600.137 792.195 474.465 792.195 319.441Z" fill="white"/>
<path d="M553.203 289.297L523.215 146.066C523.215 146.066 545.734 141.23 546.645 138.574C547.547 135.914 499.34 74.6719 490.41 80.5352C481.48 86.3984 457.961 152.375 464.168 154.492C470.379 156.605 481.039 152.617 481.039 152.617L532.531 296.387C525.461 301.148 520.23 308.609 518.539 317.629C517.211 324.664 518.246 331.59 521.059 337.621C487.676 367.68 424.633 427.008 393.125 456.762C389.797 452.922 385.648 447.164 383.57 446.57C377.008 444.699 354.516 502.738 354.516 502.738C353.578 510.23 405.125 484.953 407.938 482.141C409.066 481.02 406.703 476.309 403.25 470.91C436.438 443.352 501.066 382.059 534.625 352.363C537.746 354.145 541.207 355.449 544.938 356.152C562.887 359.523 577.012 347.457 580.383 329.551C583.723 311.82 570.859 292.898 553.203 289.297Z" fill="#F1F1F1"/>
<path d="M548.281 291.422L513.172 141.477C513.172 141.477 529.5 137.145 530.406 134.484C531.316 131.828 484.523 80.3125 475.594 86.1719C466.668 92.0352 447.332 148.75 453.539 150.863C459.754 152.973 471.043 148.902 471.043 148.902L523.156 296.387C516.094 301.148 510.863 308.609 509.164 317.629C507.84 324.664 508.867 331.59 511.684 337.621C478.305 367.68 415.262 427.008 383.75 456.762C380.426 452.922 377.215 449.973 375.133 449.379C368.574 447.504 347.957 498.059 347.957 498.059C347.019 505.543 393.879 482.141 396.687 479.336C397.816 478.207 395.625 473.461 392.172 468.066C425.359 440.512 491.691 382.059 525.25 352.363C528.371 354.145 531.836 355.449 535.566 356.152C553.516 359.523 570.797 347.738 574.168 329.832C577.5 312.102 565.937 295.023 548.281 291.422Z" fill="#2B2B2B"/>
<path d="M548.281 291.422L513.172 141.477C513.172 141.477 529.5 137.145 530.406 134.484C531.316 131.828 484.523 80.3125 475.594 86.1719C466.668 92.0352 447.332 148.75 453.539 150.863C459.754 152.973 471.043 148.902 471.043 148.902L523.156 296.387C516.094 301.148 510.863 308.609 509.164 317.629C507.84 324.664 508.867 331.59 511.684 337.621C478.305 367.68 415.262 427.008 383.75 456.762C380.426 452.922 377.215 449.973 375.133 449.379C368.574 447.504 347.957 498.059 347.957 498.059C347.019 505.543 393.879 482.141 396.687 479.336C397.816 478.207 395.625 473.461 392.172 468.066C425.359 440.512 491.691 382.059 525.25 352.363C528.371 354.145 531.836 355.449 535.566 356.152C553.516 359.523 570.797 347.738 574.168 329.832C577.5 312.102 565.937 295.023 548.281 291.422Z" fill="#2B2B2B"/>
<path d="M394.656 534.387C393.816 534.387 393.324 534.035 393.258 533.262C393.258 533.262 400.43 494.121 406.762 482.984C407.348 482.617 407.75 482.328 407.938 482.141C408.18 481.902 408.262 481.492 408.203 480.945C408.754 480.371 409.289 480.059 409.812 480.059C409.84 480.059 409.871 480.059 409.902 480.059C412.062 480.215 415.809 482.449 419.852 485.523C433.422 466.031 454.453 435.91 475.055 406.695C490.098 392.867 504.91 379.207 517.668 367.609C515.016 375.117 512.191 383.164 509.281 391.527C482.438 427.324 449.684 470.641 430.406 494.875C434.891 499.453 438.008 503.652 437.133 504.984C435.18 507.969 401.941 534.387 394.656 534.387Z" fill="#D5D5D5"/>
<path d="M406.762 482.984C407.25 482.129 407.73 481.434 408.203 480.945C408.262 481.492 408.18 481.902 407.938 482.141C407.75 482.328 407.348 482.617 406.762 482.984ZM475.055 406.695C481.48 397.582 487.863 388.559 493.965 379.977C504.418 370.777 514.051 362.273 522.105 355.152C520.687 359.09 519.211 363.258 517.668 367.609C504.91 379.207 490.098 392.867 475.055 406.695Z" fill="#C9C9C9"/>
<path d="M493.965 379.977C503.934 365.957 513.148 353.109 520.578 342.961C522.926 343.172 525.359 343.777 527.609 344.738C526.98 344.809 526.363 344.902 525.762 345.02C524.605 348.188 523.387 351.574 522.105 355.152C514.051 362.273 504.418 370.777 493.965 379.977Z" fill="#2B2B2B"/>
<path d="M652.379 552.25C652.203 552.25 652.02 552.207 651.816 552.121C651.816 552.121 609.461 517.625 613.176 511.902C614.352 510.094 618.117 507.891 622.762 505.84C609.219 478.543 586.238 432.059 567.184 392.73C565.234 378.793 563.391 365.73 561.801 354.551C564.367 353.469 566.734 352.012 568.871 350.23C588.379 393.051 620.676 464.41 636.051 501.105C639.957 500.023 643.461 499.34 645.703 499.34C647.008 499.34 647.887 499.57 648.164 500.09C649.977 503.496 658.215 552.25 652.379 552.25Z" fill="#FBFBFB"/>
<path d="M561.801 354.551C561.594 353.121 561.398 351.723 561.207 350.355C563.191 348.902 565.023 347.23 566.656 345.359C567.371 346.938 568.109 348.562 568.871 350.23C566.734 352.012 564.367 353.469 561.801 354.551Z" fill="#EDEDED"/>
<path d="M561.207 350.355C560.941 348.504 560.684 346.707 560.438 344.98C560.637 344.883 560.832 344.773 561.027 344.668C559.32 344.219 557.574 343.777 555.711 343.484C555.035 343.379 554.348 343.328 553.645 343.328C552.922 343.328 552.191 343.383 551.457 343.484C553.852 341.668 556.574 340.371 559.309 340.016C561.176 339.773 562.973 339.707 564.742 339.652C564.582 339.809 564.422 339.969 564.262 340.121C565.027 341.805 565.828 343.551 566.656 345.359C565.023 347.23 563.191 348.902 561.207 350.355Z" fill="#2B2B2B"/>
<path d="M585.32 573.371C585.059 573.371 584.801 573.262 584.543 573.039C584.543 573.039 553.656 528.012 558.832 523.57C560.477 522.164 564.707 521.113 569.746 520.453C564.34 489.73 555.117 436.918 547.863 393.191C549.012 380.855 550.07 369.227 550.996 359.004C555.75 369.035 561.277 380.539 567.184 392.73C573.32 436.652 580.469 489.336 583.832 519.66C590.242 519.75 595.414 520.539 595.734 522.098C596.5 525.813 590.832 573.371 585.32 573.371Z" fill="#F4F4F4"/>
<path d="M549.934 344.746C549.492 344.535 549.039 344.328 548.574 344.125C549.531 343.836 550.496 343.621 551.457 343.484C550.93 343.883 550.422 344.305 549.934 344.746Z" fill="#2B2B2B"/>
<path d="M567.184 392.73C561.277 380.539 555.75 369.035 550.996 359.004C551.066 358.234 551.137 357.469 551.203 356.715C554.996 356.676 558.551 355.914 561.801 354.551C563.391 365.73 565.234 378.793 567.184 392.73Z" fill="#F0F0F0"/>
<path d="M551.203 356.715C551.246 356.238 551.289 355.762 551.328 355.293C554.891 354.207 558.227 352.527 561.207 350.355C561.398 351.723 561.594 353.121 561.801 354.551C558.551 355.914 554.996 356.676 551.203 356.715Z" fill="#E3E3E3"/>
<path d="M551.328 355.293C551.617 352.16 551.883 349.18 552.133 346.371C552.352 346.32 552.566 346.258 552.785 346.199C551.852 345.707 550.914 345.215 549.934 344.746C550.422 344.305 550.93 343.883 551.457 343.484C552.191 343.383 552.922 343.328 553.645 343.328C554.348 343.328 555.035 343.379 555.711 343.484C557.574 343.777 559.32 344.219 561.027 344.668C560.832 344.773 560.637 344.883 560.438 344.98C560.684 346.707 560.941 348.504 561.207 350.355C558.227 352.527 554.891 354.207 551.328 355.293Z" fill="#2B2B2B"/>
<path d="M524.23 574.406C523.883 574.406 523.578 574.238 523.316 573.883C523.316 573.883 503.574 522.984 509.629 519.848C510.789 519.25 512.824 518.992 515.371 518.992C517.055 518.992 518.953 519.105 520.969 519.309C522.691 489.109 525.691 437.879 528.574 394.484C533.602 381.164 538.266 368.758 542.203 358.254C543.832 368.637 545.766 380.535 547.863 393.191C543.75 437.59 538.574 491.199 534.863 521.754C541.082 523.316 545.938 525.262 545.895 526.859C545.785 530.594 529.813 574.41 524.23 574.406Z" fill="#E9E9E9"/>
<path d="M541.301 347.895C539.039 346.16 536.07 345.145 532.977 344.766C535.777 343.523 538.992 342.781 542.074 342.781C544.121 342.781 546.109 343.109 547.879 343.832C548.113 343.926 548.348 344.027 548.574 344.125C545.965 344.922 543.43 346.258 541.301 347.895Z" fill="#2B2B2B"/>
<path d="M547.863 393.191C545.766 380.535 543.832 368.637 542.203 358.254C542.398 357.738 542.59 357.219 542.781 356.711C544 356.672 545.211 356.563 546.395 356.395C547.582 356.563 548.758 356.664 549.906 356.703C550.266 357.461 550.629 358.227 550.996 359.004C550.07 369.227 549.012 380.855 547.863 393.191Z" fill="#E0E0E0"/>
<path d="M549.906 356.703C548.758 356.664 547.582 356.563 546.395 356.395C547.438 356.246 548.465 356.047 549.48 355.801C549.621 356.098 549.766 356.398 549.906 356.703Z" fill="#D4D4D4"/>
<path d="M542.781 356.711C543.457 354.906 544.113 353.16 544.738 351.48C544.961 351.488 545.188 351.488 545.41 351.488C544.125 350.277 542.805 349.055 541.309 347.906C541.305 347.902 541.305 347.898 541.301 347.895C543.43 346.258 545.965 344.922 548.574 344.125C549.039 344.328 549.492 344.535 549.934 344.746C548.531 346.016 547.285 347.457 546.27 348.965C547.285 351.141 548.355 353.422 549.48 355.801C548.465 356.047 547.438 356.246 546.395 356.395C545.211 356.563 544 356.672 542.781 356.711Z" fill="#2B2B2B"/>
<path d="M550.996 359.004C550.629 358.227 550.266 357.461 549.906 356.703C550.23 356.711 550.551 356.719 550.871 356.719C550.984 356.719 551.094 356.715 551.203 356.715C551.137 357.469 551.066 358.234 550.996 359.004Z" fill="#DCDCDC"/>
<path d="M550.871 356.719C550.551 356.719 550.23 356.711 549.906 356.703C549.766 356.398 549.621 356.098 549.48 355.801C550.105 355.648 550.719 355.477 551.328 355.293C551.289 355.762 551.246 356.238 551.203 356.715C551.094 356.715 550.984 356.719 550.871 356.719Z" fill="#D0D0D0"/>
<path d="M549.48 355.801C548.355 353.422 547.285 351.141 546.27 348.965C547.285 347.457 548.531 346.016 549.934 344.746C550.914 345.215 551.852 345.707 552.785 346.199C552.566 346.258 552.352 346.32 552.133 346.371C551.883 349.18 551.617 352.16 551.328 355.293C550.719 355.477 550.105 355.648 549.48 355.801Z" fill="#2B2B2B"/>
<path d="M457.606 563.992C457.106 563.992 456.742 563.742 456.531 563.207C456.531 563.207 451.012 508.902 457.688 507.484C458.008 507.414 458.379 507.383 458.785 507.383C461.094 507.383 464.738 508.41 468.762 509.965C478.453 481.281 494.969 432.629 509.281 391.527C517.106 381.094 524.426 371.305 530.77 362.809C530.059 372.508 529.32 383.227 528.574 394.484C512.746 436.395 493.297 487.293 481.512 516.004C487.094 519.16 491.258 522.32 490.789 523.844C489.715 527.352 463.684 563.992 457.606 563.992Z" fill="#DFDFDF"/>
<path d="M531.945 347.262C530.656 346.258 529.176 345.41 527.609 344.738C528.453 344.648 529.312 344.598 530.172 344.598C531.109 344.598 532.047 344.656 532.977 344.766C532.684 344.898 532.398 345.031 532.117 345.172C532.062 345.855 532.004 346.559 531.945 347.262Z" fill="#2B2B2B"/>
<path d="M509.281 391.527C512.191 383.164 515.016 375.117 517.668 367.609C522.555 363.164 527.148 359.023 531.328 355.293C531.145 357.719 530.961 360.227 530.77 362.809C524.426 371.305 517.105 381.094 509.281 391.527Z" fill="#BCBCBC"/>
<path d="M517.668 367.609C519.211 363.258 520.687 359.09 522.105 355.152C523.18 354.195 524.23 353.266 525.25 352.363C527.16 353.453 529.199 354.363 531.348 355.07C531.336 355.145 531.332 355.219 531.328 355.293C527.148 359.023 522.555 363.164 517.668 367.609Z" fill="#B1B1B1"/>
<path d="M522.105 355.152C523.387 351.574 524.605 348.188 525.762 345.02C526.363 344.902 526.98 344.809 527.609 344.738C529.176 345.41 530.656 346.258 531.945 347.262C531.75 349.754 531.547 352.355 531.348 355.07C529.199 354.363 527.16 353.453 525.25 352.363C524.23 353.266 523.18 354.195 522.105 355.152Z" fill="#2B2B2B"/>
<path d="M528.574 394.484C529.32 383.227 530.059 372.508 530.77 362.809C532.492 360.5 534.145 358.285 535.715 356.18C537.73 356.551 539.738 356.727 541.719 356.727C541.801 356.727 541.879 356.727 541.965 356.727C542.043 357.234 542.121 357.738 542.203 358.254C538.266 368.758 533.602 381.164 528.574 394.484Z" fill="#CDCDCD"/>
<path d="M541.719 356.727C539.738 356.727 537.73 356.551 535.715 356.18C536.148 355.594 536.586 355.016 537.004 354.445C537.215 354.516 537.437 354.574 537.648 354.641C536.75 353.121 535.824 351.578 534.711 350.059C533.949 349.023 533.016 348.09 531.945 347.262C532.004 346.559 532.062 345.855 532.117 345.172C532.398 345.031 532.684 344.898 532.977 344.766C536.07 345.145 539.039 346.16 541.301 347.895C541.09 348.059 540.879 348.223 540.676 348.391C541.082 351.031 541.508 353.816 541.965 356.727C541.879 356.727 541.801 356.727 541.719 356.727Z" fill="#2B2B2B"/>
<path d="M530.77 362.809C530.961 360.227 531.145 357.719 531.328 355.293C531.391 355.238 531.457 355.18 531.516 355.125C532.824 355.547 534.18 355.891 535.566 356.152C535.613 356.16 535.668 356.172 535.715 356.18C534.145 358.285 532.492 360.5 530.77 362.809Z" fill="#ADADAD"/>
<path d="M531.328 355.293C531.332 355.219 531.336 355.145 531.348 355.07C531.402 355.086 531.461 355.105 531.516 355.125C531.457 355.18 531.391 355.238 531.328 355.293Z" fill="#A4A4A4"/>
<path d="M535.715 356.18C535.668 356.172 535.613 356.16 535.566 356.152C534.18 355.891 532.824 355.547 531.516 355.125C531.461 355.105 531.402 355.086 531.348 355.07C531.547 352.355 531.75 349.754 531.945 347.262C533.016 348.09 533.949 349.023 534.711 350.059C535.824 351.578 536.75 353.121 537.648 354.641C537.437 354.574 537.215 354.516 537.004 354.445C536.586 355.016 536.148 355.594 535.715 356.18Z" fill="#2B2B2B"/>
<path d="M542.203 358.254C542.121 357.738 542.043 357.234 541.965 356.727C542.234 356.723 542.508 356.719 542.781 356.711C542.59 357.219 542.398 357.738 542.203 358.254Z" fill="#C5C5C5"/>
<path d="M541.965 356.727C541.508 353.816 541.082 351.031 540.676 348.391C540.879 348.223 541.09 348.059 541.301 347.895C541.305 347.898 541.305 347.902 541.309 347.906C542.805 349.055 544.125 350.277 545.41 351.488C545.188 351.488 544.961 351.488 544.738 351.48C544.113 353.16 543.457 354.906 542.781 356.711C542.508 356.719 542.234 356.723 541.965 356.727Z" fill="#2B2B2B"/>
<path d="M553.203 324.402C553.203 331.383 547.539 337.039 540.551 337.039C533.563 337.039 527.898 331.383 527.898 324.402C527.898 317.422 533.563 311.766 540.551 311.766C547.539 311.766 553.203 317.422 553.203 324.402Z" fill="#F1F1F1"/>
<path d="M577.566 49.6406L563.516 281.805C563.516 281.805 601 293.043 591.633 337.039L790.234 354.094C791.52 342.738 792.195 331.176 792.195 319.441C792.195 249.293 768.473 185.152 729.273 135.949C696.074 100.316 647.742 68.8242 577.566 49.6406Z" fill="#CC234B"/>
<path d="M611.906 316.227L611.867 316.223C611.871 317.285 611.797 318.641 611.648 320.281C611.633 320.703 611.621 321.145 611.602 321.613C611.602 322.203 611.602 322.812 611.621 323.434L611.672 324.102C611.719 324.402 611.891 324.555 612.188 324.559L612.746 324.535L613.27 324.508C613.77 324.453 614.133 324.398 614.359 324.348L615.43 324.035C616.215 323.809 616.789 323.488 617.148 323.078C618.266 321.945 618.98 320.625 619.289 319.121C619.402 318.414 619.387 317.895 619.246 317.559L619.176 317.109L619.066 316.652C618.805 315.441 618.359 314.461 617.738 313.715L617.5 313.469C617.414 313.34 617.313 313.258 617.191 313.219L616.801 313L616.453 312.781C616.172 312.605 615.922 312.477 615.703 312.383C614.805 311.953 613.91 311.762 613.012 311.805C612.437 311.875 612.148 312.195 612.145 312.762L612.141 312.836C612.137 312.91 612.117 313.34 612.094 314.129L611.906 316.227ZM618.758 306.168L619.191 306.32L619.578 306.539L619.93 306.758C620.723 307.273 621.41 307.918 621.984 308.684C622.445 309.32 622.859 310.086 623.223 310.988L623.801 312.336C624.031 312.828 624.176 313.285 624.234 313.711C624.578 315.125 624.637 316.652 624.414 318.285C624.332 318.898 624.203 319.516 624.02 320.141L623.918 320.504C623.875 320.672 623.836 320.816 623.801 320.937L623.582 321.734C623.398 322.41 623.105 323.187 622.699 324.066L622.387 324.629L622.117 325.199C622 325.359 621.875 325.559 621.73 325.793L621.559 326.039L621.387 326.281L621.309 326.348L621.219 326.488C620.922 327.031 620.473 327.594 619.875 328.184L619.477 328.52L619.074 328.887L618.195 329.551C617.848 329.84 617.348 330.141 616.699 330.453L615.922 330.828L615.117 331.16C614.727 331.352 613.945 331.523 612.77 331.691C611.813 331.852 610.785 331.934 609.699 331.934L609 331.871L608.332 331.848L607.629 331.816L606.969 331.762C606.551 331.723 606.301 331.512 606.207 331.133C606.172 330.984 606.145 330.855 606.133 330.758L606.109 330.57L606.055 330.379C605.91 329.527 605.84 328.555 605.84 327.465C605.824 327.32 605.82 327.07 605.828 326.723L605.789 326.316L605.801 325.832C605.746 325.035 605.707 324.281 605.672 323.559C605.672 323.289 605.668 322.93 605.66 322.484L605.719 321.414C605.828 319.645 605.895 318.625 605.922 318.352L606.059 317.254L606.234 316.156L606.25 315.937C606.293 315.199 606.445 314.074 606.707 312.566L607.02 310.777L607.293 308.984C607.371 308.648 607.449 308.195 607.523 307.637C607.609 307.023 607.684 306.574 607.762 306.285C607.828 305.82 608.098 305.535 608.578 305.43L609.184 305.301L609.758 305.168C611.469 304.828 613.031 304.785 614.445 305.039C615.383 305.023 616.691 305.352 618.359 306.02L618.758 306.168Z" fill="#F1F1F1"/>
<path d="M640.863 313.324L640.844 313.547C640.789 313.863 640.598 314.043 640.273 314.086C640.148 314.102 639.953 314.094 639.68 314.07C639.332 314.09 638.766 314.086 637.977 314.066L636.277 313.949L635.352 313.937L634.383 313.961C633.984 314 633.766 314.238 633.727 314.68C633.656 315.145 633.617 315.621 633.594 316.113L633.539 316.703C633.523 316.875 633.527 317.086 633.559 317.336C633.555 317.633 633.699 317.805 633.992 317.855C634.113 317.891 634.223 317.902 634.324 317.887L636.387 318.074C637.219 318.148 637.758 318.211 638.004 318.258C638.977 318.395 639.918 318.555 640.816 318.734C641.254 318.801 641.481 319.078 641.484 319.574L641.445 322.461C641.453 322.91 641.453 323.18 641.445 323.277C641.414 323.621 641.234 323.816 640.91 323.859L640.387 323.887L639.898 323.953C639.473 323.988 639.141 323.984 638.898 323.937L638.715 323.922L638.566 323.871L638.238 323.84C637.648 323.762 636.969 323.738 636.199 323.766L635.16 323.781L634.156 323.84L633.227 323.867C632.922 323.941 632.758 324.086 632.738 324.305C632.617 325.086 632.555 325.512 632.547 325.586C632.512 325.707 632.473 325.988 632.434 326.43C632.402 326.75 632.598 326.949 633.008 327.039C633.715 327.152 634.262 327.176 634.637 327.113C635.113 327.055 635.902 327.078 637.004 327.176L638.699 327.332L639.508 327.441L640.352 327.52C640.598 327.539 640.746 327.566 640.789 327.594C641.082 327.695 641.219 327.895 641.219 328.187L641.176 328.668L641.156 329.738L641.094 330.812C641.106 330.961 641.055 331.387 640.941 332.094L640.902 332.535C640.82 332.875 640.633 333.055 640.328 333.078C639.832 333.129 639.215 333.137 638.473 333.094L637.809 333.035L637.106 333.008H635.883C635.336 333.031 634.496 332.992 633.371 332.891C631.762 332.621 630.277 332.586 628.926 332.785C628.102 332.883 627.418 332.871 626.883 332.75C626.742 332.684 626.57 332.668 626.371 332.703L625.852 332.691C625.359 332.672 625.145 332.43 625.211 331.969C625.281 331.453 625.387 330.992 625.523 330.586L625.809 327.461C625.961 326.016 626.137 324.785 626.332 323.762C626.469 322.715 626.641 321.664 626.836 320.617L627.559 316.312L627.934 314.266C628.074 313.242 628.16 312.57 628.188 312.254C628.281 311.816 628.359 311.34 628.43 310.828L628.703 309.48L628.906 308.496C629.004 307.937 629.324 307.668 629.863 307.695L630.418 307.746C630.617 307.738 631.039 307.762 631.676 307.82L632.301 307.875L632.922 307.973L634.031 307.996C634.231 307.992 634.441 307.996 634.664 308.016L635.18 308.062C635.375 308.059 635.93 308.117 636.832 308.25C638.02 308.508 638.848 308.645 639.32 308.66C639.469 308.652 639.832 308.699 640.422 308.797C640.813 308.832 641.027 309.039 641.07 309.414C641.098 309.664 641.102 309.852 641.094 309.973L641.004 310.93L640.93 311.367L640.863 313.324Z" fill="#F1F1F1"/>
<path d="M656.777 321.625L656.742 321.586L656.715 320.25L656.648 318.91L656.547 318.047L656.434 317.184C656.391 316.859 656.223 316.672 655.93 316.621L655.457 316.539L654.941 316.457C654.672 316.43 654.461 316.559 654.312 316.844C654.254 316.961 654.203 317.117 654.16 317.313L654.008 317.781C653.84 318.234 653.684 318.75 653.531 319.332L653.129 320.891C653.012 321.125 652.914 321.375 652.84 321.641C652.73 322.051 652.883 322.25 653.305 322.238C653.426 322.25 653.504 322.246 653.527 322.223L656.16 322.313C656.527 322.297 656.734 322.094 656.77 321.699L656.777 321.625ZM663.113 334.398C663.086 334.691 662.91 334.875 662.582 334.945C662.43 334.98 662.27 334.992 662.094 334.977L661.578 334.965L660.465 334.941L659.84 334.844L659.219 334.789C658.605 334.734 658.207 334.711 658.039 334.719C657.465 334.742 657.168 334.469 657.148 333.895L656.914 331.133L656.797 328.785C656.758 328.387 656.687 328.133 656.602 328.027C656.492 327.895 656.254 327.758 655.895 327.629C654.934 327.34 654.129 327.172 653.492 327.113C652.707 327.043 652.195 326.984 651.953 326.938C651.562 326.879 651.324 327.027 651.238 327.395L651.066 328.117L650.93 328.773C650.887 329.016 650.836 329.27 650.785 329.539L650.652 330.195L650.441 331.285L650.195 332.375C650.133 332.766 650.043 333.094 649.918 333.352C649.762 333.734 649.473 333.918 649.055 333.906L645.93 333.918C645.586 333.938 645.191 333.922 644.75 333.883L644.156 333.867L643.523 333.887C643.355 333.871 643.254 333.848 643.23 333.824C642.871 333.742 642.738 333.52 642.848 333.156L643.059 332.473L643.23 331.785L644.414 327.773L644.512 327.488L644.621 327.16C644.691 326.848 644.77 326.582 644.84 326.367L645.262 324.996L646.367 321.387C646.402 321.27 646.461 321.039 646.543 320.699L646.676 320.043C647.137 318.23 647.648 316.523 648.215 314.918L649.383 311.465L649.484 311.176L649.625 310.855C649.824 310.305 650.219 310.047 650.812 310.074C652.594 310.039 653.855 310.09 654.582 310.23C654.68 310.262 654.836 310.289 655.055 310.309L655.391 310.34L655.754 310.41C656.195 310.449 656.586 310.512 656.922 310.59L659.105 311.086L661.656 311.613C662.023 311.672 662.27 311.781 662.406 311.941L662.434 312.055L662.457 312.203C662.496 312.355 662.516 312.52 662.527 312.691L662.602 315.145L662.59 316.039C662.602 316.48 662.609 316.793 662.617 316.965L662.605 318.742C662.621 319.363 662.645 319.945 662.672 320.492L662.793 321.984L662.914 323.48L663.043 325.383C663.094 325.93 663.109 326.539 663.102 327.203L663.117 329.43L663.148 330.73L663.141 332.066C663.094 332.559 663.078 332.863 663.094 332.988L663.113 334.398Z" fill="#F1F1F1"/>
<path d="M672.613 321.727H672.582C672.582 322.789 672.512 324.141 672.359 325.781C672.348 326.203 672.332 326.645 672.312 327.113C672.309 327.707 672.316 328.312 672.336 328.93L672.383 329.605C672.43 329.906 672.602 330.059 672.902 330.059L673.457 330.035L673.98 330.008C674.48 329.953 674.84 329.898 675.07 329.848L676.137 329.535C676.926 329.312 677.5 328.992 677.859 328.578C678.977 327.445 679.691 326.125 680 324.621C680.117 323.914 680.098 323.395 679.957 323.059L679.887 322.609L679.777 322.152C679.52 320.945 679.074 319.965 678.453 319.215L678.215 318.973C678.125 318.84 678.02 318.758 677.902 318.719L677.512 318.5L677.16 318.281C676.879 318.109 676.633 317.977 676.418 317.883C675.512 317.453 674.617 317.262 673.723 317.305C673.148 317.375 672.855 317.695 672.855 318.262L672.848 318.336C672.844 318.41 672.824 318.84 672.809 319.629L672.613 321.727ZM679.469 311.668L679.902 311.82L680.289 312.043L680.641 312.258C681.434 312.773 682.117 313.414 682.695 314.187C683.152 314.824 683.566 315.59 683.934 316.484L684.516 317.836C684.738 318.328 684.883 318.785 684.945 319.211C685.289 320.629 685.344 322.152 685.125 323.789C685.043 324.398 684.914 325.02 684.734 325.641L684.625 326.004C684.586 326.176 684.547 326.32 684.512 326.437L684.293 327.234C684.105 327.91 683.813 328.687 683.414 329.566L683.102 330.129L682.824 330.699C682.711 330.859 682.582 331.059 682.438 331.293L682.266 331.539L682.098 331.781L682.016 331.848L681.93 331.988C681.637 332.531 681.187 333.094 680.59 333.684L680.188 334.02L679.781 334.391L678.902 335.051C678.555 335.344 678.063 335.641 677.41 335.953L676.637 336.328L675.824 336.664C675.441 336.852 674.652 337.027 673.477 337.191C672.52 337.355 671.5 337.434 670.41 337.434L669.711 337.371L669.047 337.348L668.344 337.32L667.68 337.262C667.262 337.223 667.008 337.016 666.922 336.637C666.883 336.484 666.859 336.359 666.84 336.258L666.824 336.07L666.77 335.879C666.621 335.027 666.547 334.055 666.547 332.969C666.535 332.82 666.535 332.57 666.539 332.227L666.504 331.816L666.512 331.332C666.461 330.539 666.418 329.781 666.379 329.059C666.379 328.789 666.375 328.43 666.367 327.98L666.43 326.914C666.539 325.145 666.609 324.125 666.629 323.855L666.77 322.754L666.941 321.66L666.965 321.437C667.004 320.699 667.156 319.578 667.418 318.07L667.727 316.277L668 314.488C668.086 314.148 668.16 313.699 668.238 313.137C668.316 312.527 668.395 312.074 668.473 311.785C668.535 311.32 668.812 311.039 669.293 310.93L669.898 310.801L670.465 310.668C672.176 310.328 673.738 310.285 675.152 310.539C676.098 310.523 677.402 310.852 679.074 311.523L679.469 311.668Z" fill="#F1F1F1"/>
<path d="M695.238 337.906C695.094 337.891 694.328 337.848 692.949 337.77L692.73 337.715L692.512 337.695C691.418 337.445 690.59 337.332 690.016 337.355C689.793 337.387 689.508 337.359 689.172 337.281L688.293 337.164L687.48 337.09C687.426 337.109 687.297 337.109 687.07 337.09C686.781 337.039 686.609 336.863 686.562 336.562L686.531 336.113L686.684 334.422L686.68 332.793C686.773 331.266 686.824 330.418 686.836 330.246C686.926 328.723 686.977 327.898 686.988 327.773C687.008 327.555 687.141 326.391 687.383 324.289L687.477 323.258C687.555 322.895 687.629 322.52 687.684 322.129L687.742 321.543L687.832 320.918L688.035 319.492C688.152 318.242 688.238 317.434 688.297 317.066C688.395 316.262 688.527 315.469 688.695 314.691C688.699 314.645 688.719 314.609 688.742 314.586L688.75 314.477C688.922 313.973 689.242 313.707 689.719 313.672C689.996 313.598 690.285 313.563 690.578 313.566L690.734 313.543L690.957 313.527C691.105 313.516 691.254 313.504 691.406 313.492L691.777 313.488L692.184 313.453L693 313.527L694.898 313.848C695.359 313.914 695.562 314.18 695.492 314.641L695.074 316.828L694.652 319.016C694.57 319.355 694.52 319.672 694.492 319.965L694.41 320.438L694.363 320.953L694.016 323.555C693.977 323.973 693.941 324.242 693.906 324.363L693.594 326.629L693.484 327.363L693.383 328.059C693.336 328.301 693.312 328.559 693.312 328.832C693.301 329.004 693.293 329.227 693.293 329.496C693.332 329.625 693.312 329.793 693.242 330.012L693.191 330.598C693.172 330.82 693.172 330.945 693.195 330.969C693.223 331.195 693.324 331.328 693.492 331.371C693.516 331.395 693.602 331.414 693.75 331.43L694.184 331.504L694.621 331.582C694.992 331.641 695.316 331.707 695.605 331.781L696.48 332.012L697.383 332.238C697.578 332.285 697.895 332.348 698.332 332.438C698.793 332.527 699.113 332.594 699.281 332.637C699.695 332.695 699.91 332.914 699.93 333.285L699.953 333.809L700.012 334.406C700.043 334.879 700.059 335.352 700.07 335.82C700.094 336.07 700.098 336.293 700.082 336.488L700.02 337.188C699.973 337.68 699.727 337.941 699.277 337.973C698.676 338.043 698.07 338.062 697.453 338.031C697.008 338.039 696.637 338.031 696.344 338.004L695.238 337.906Z" fill="#F1F1F1"/>
<path d="M702.125 334.004L702.203 333.16L702.246 332.273L702.285 331.422L702.457 329.547L702.613 328.598C702.652 328.453 702.668 328.293 702.66 328.121C702.672 327.996 702.672 327.852 702.664 327.676C702.633 327.449 702.66 327.172 702.742 326.828L702.852 325.988L703.09 323.82L703.285 321.648L703.848 317.066L703.949 316.371L704.012 315.711C704.094 315.324 704.301 315.094 704.629 315.023L704.816 315.004L704.965 315.02L705.113 314.996L705.188 315C705.828 315.035 706.668 315.172 707.715 315.414C707.785 315.445 707.906 315.469 708.078 315.484L708.297 315.504L708.551 315.566L708.953 315.637L709.355 315.711L709.574 315.73C710.238 315.793 710.555 316.156 710.516 316.82C710.375 318.414 710.074 320.168 709.629 322.078C709.289 323.137 709.129 324.293 709.164 325.559L709.168 325.93L709.129 326.332L709.109 327.812L709.047 329.328C709.066 329.676 709.02 330.129 708.926 330.688L708.785 332.234C708.52 334.582 708.375 335.895 708.352 336.164C708.258 337.191 708.207 337.844 708.207 338.117C708.168 338.555 708.07 338.844 707.91 338.977C707.754 339.109 707.461 339.148 707.043 339.086L704.844 338.812L703.777 338.715L702.707 338.652C702.629 338.695 702.531 338.688 702.414 338.625C702.047 338.547 701.867 338.332 701.875 337.984L701.883 336.688L701.965 335.77L702.012 334.848L702.125 334.004Z" fill="#F1F1F1"/>
<path d="M718.527 328.301C718.492 328.441 718.461 328.676 718.43 328.996L718.387 329.434L718.305 329.984C718.215 330.691 718.129 331.254 718.039 331.664L717.77 333.012L717.434 335.023C717.375 335.461 717.273 336.402 717.145 337.852C717.062 338.73 717 339.309 716.949 339.574C716.898 340.117 716.59 340.383 716.023 340.383L715.434 340.328L712.695 340.227L712.105 340.172L711.512 340.16C711.117 340.121 710.941 339.91 710.977 339.516C710.965 339.094 711.004 338.68 711.094 338.266L711.293 337.32L711.484 336.336C711.539 336.02 711.602 335.668 711.656 335.277L711.738 334.84L711.809 334.438L711.852 333.996C711.867 333.801 711.895 333.617 711.934 333.449L712.023 332.457L712.363 330.41C712.516 329.289 712.59 328.664 712.605 328.539C712.699 328.055 712.785 327.504 712.867 326.895L712.941 326.086L713.055 325.246L713.105 324.691L713.348 322.785L713.473 321.461C713.555 321.051 713.648 320.465 713.738 319.707C713.832 319 713.918 318.426 714.008 317.988C714.098 317.551 714.23 317.082 714.398 316.578C714.504 316.242 714.75 316.09 715.148 316.125L715.77 316.148L716.398 316.203L717.098 316.23L717.77 316.254L718.473 316.242C718.742 316.219 718.98 316.238 719.172 316.305L719.613 316.383L720.012 316.418C720.43 316.457 720.711 316.68 720.848 317.086L720.953 317.543L721.047 317.773L721.105 317.965L721.527 318.969C721.672 319.301 721.828 319.625 722 319.938C722.441 320.766 722.797 321.602 723.07 322.441C723.309 323.082 723.535 323.574 723.75 323.914C724.32 324.73 725.059 326.023 725.965 327.785L726.121 328.059L726.316 328.375C726.336 328.426 726.473 328.598 726.715 328.895C726.824 328.805 726.895 328.699 726.93 328.578L726.984 328.398L726.996 328.285L727.043 328.145L727.316 325.129L727.437 324.211C727.488 323.648 727.57 323.047 727.676 322.414L727.77 321.348L727.828 320.316L727.871 319.875C727.887 319.68 727.914 319.496 727.953 319.328L728.039 318.371L728.105 318.117L728.125 317.895C728.156 317.48 728.363 317.277 728.734 317.285C728.98 317.281 729.535 317.32 730.395 317.398L730.875 317.441L731.168 317.504L731.422 317.527L732.223 317.672L733.031 317.785C733.445 317.871 733.707 318.105 733.824 318.484C733.902 318.668 733.953 318.918 733.977 319.242L733.902 320.051C733.82 320.98 733.777 321.586 733.777 321.855L733.695 324.406C733.707 324.781 733.703 325.223 733.684 325.738L733.594 327.105L733.531 328.621C733.527 329.188 733.488 329.691 733.398 330.129C733.266 331.008 733.23 331.695 733.285 332.195L733.254 332.523L733.07 333.77L732.898 334.793L732.766 335.855L732.68 336.773L732.566 337.691L732.535 338.023L732.461 338.387L732.328 339.043L732.215 339.438L732.145 339.801L731.93 340.523C731.879 340.84 731.668 341.059 731.316 341.176C730.484 341.395 729.578 341.535 728.609 341.598L727.836 341.527L726.328 341.316L725.562 341.172C725.219 341.094 724.992 340.887 724.879 340.551L724.465 339.367L723.512 337.242L723.355 336.895L723.273 336.551L723.152 336.242L723 335.898L722.594 334.598L722.355 333.984L722.109 333.441L720.746 330.836C720.605 330.477 720.359 329.973 720 329.32L719.574 328.617L719.203 327.84C719.117 327.66 718.98 327.523 718.793 327.434C718.711 327.5 718.641 327.641 718.57 327.855L718.527 328.301Z" fill="#F1F1F1"/>
<path d="M750.578 323.266L750.559 323.488C750.504 323.801 750.312 323.984 749.992 324.027C749.863 324.043 749.664 324.035 749.398 324.012C749.055 324.031 748.48 324.027 747.691 324.004L745.996 323.891L745.066 323.879L744.102 323.902C743.699 323.937 743.48 324.18 743.437 324.621C743.371 325.086 743.332 325.562 743.312 326.055L743.254 326.645C743.242 326.816 743.242 327.027 743.269 327.273C743.269 327.574 743.418 327.746 743.707 327.797C743.828 327.832 743.937 327.844 744.039 327.828L746.102 328.012C746.934 328.09 747.473 328.148 747.719 328.199C748.691 328.336 749.633 328.496 750.535 328.676C750.973 328.738 751.195 329.02 751.195 329.516L751.156 332.402C751.168 332.848 751.168 333.121 751.156 333.219C751.129 333.562 750.949 333.754 750.621 333.797L750.102 333.824L749.613 333.895C749.191 333.93 748.859 333.922 748.609 333.879L748.426 333.859L748.289 333.809L747.953 333.781C747.363 333.703 746.687 333.676 745.918 333.707L744.879 333.723L743.871 333.781L742.941 333.809C742.637 333.883 742.477 334.023 742.457 334.246C742.332 335.027 742.273 335.453 742.262 335.527C742.227 335.648 742.195 335.93 742.152 336.367C742.121 336.687 742.312 336.891 742.727 336.977C743.437 337.09 743.977 337.117 744.352 337.051C744.828 336.996 745.621 337.02 746.723 337.117L748.414 337.273L749.223 337.383L750.07 337.457C750.312 337.48 750.461 337.508 750.508 337.535C750.793 337.633 750.941 337.832 750.934 338.129L750.894 338.609L750.867 339.68L750.812 340.75C750.82 340.898 750.769 341.328 750.66 342.035L750.617 342.477C750.535 342.816 750.348 342.992 750.047 343.02C749.547 343.074 748.93 343.074 748.191 343.035L747.527 342.977L746.824 342.949H745.602C745.055 342.973 744.215 342.934 743.082 342.832C741.477 342.562 740 342.527 738.641 342.727C737.816 342.824 737.133 342.812 736.602 342.687C736.457 342.625 736.289 342.609 736.09 342.645L735.566 342.633C735.074 342.613 734.863 342.371 734.93 341.906C735 341.395 735.105 340.934 735.242 340.527L735.523 337.398C735.68 335.957 735.852 334.723 736.043 333.703C736.191 332.652 736.363 331.605 736.555 330.559L737.277 326.25L737.644 324.207C737.793 323.18 737.875 322.512 737.906 322.191C737.996 321.754 738.078 321.281 738.148 320.766L738.418 319.418L738.617 318.437C738.719 317.879 739.043 317.609 739.582 317.637L740.137 317.684C740.336 317.68 740.754 317.703 741.387 317.762L742.016 317.816L742.641 317.91L743.75 317.937C743.945 317.934 744.16 317.937 744.383 317.957L744.891 318.004C745.094 318 745.641 318.059 746.551 318.191C747.734 318.449 748.57 318.586 749.035 318.602C749.184 318.59 749.551 318.637 750.133 318.738C750.531 318.773 750.746 318.98 750.785 319.355C750.812 319.605 750.82 319.789 750.805 319.91L750.723 320.867L750.644 321.309L750.578 323.266Z" fill="#F1F1F1"/>
<path d="M435.617 168.969C433.102 166.449 430.16 167.602 424.305 169.879C420.738 171.266 416.254 173.137 411.918 174.938C407.145 176.926 401.238 179.383 399.758 179.816C398.094 180.063 396.664 181.188 396.055 182.793C395.367 184.613 395.879 186.672 397.34 187.957L400.824 191.027C374.559 214.734 358.137 242.309 351.906 273.324C344.844 308.453 352.508 341.398 360.18 362.848C368.473 386.031 378.328 400.816 378.742 401.434C379.645 402.781 381.129 403.508 382.637 403.508C383.535 403.508 384.441 403.25 385.242 402.711C387.395 401.273 387.965 398.363 386.523 396.219C386.141 395.648 348.363 338.488 361.094 275.168C366.977 245.891 382.691 219.785 407.898 197.27L413.273 202C414.133 202.758 415.238 203.172 416.371 203.172C416.574 203.172 416.777 203.156 416.977 203.129C418.32 202.957 419.52 202.211 420.27 201.09C420.312 201.02 424.562 194.652 428.641 188.25C431.059 184.457 432.949 181.379 434.266 179.113C436.531 175.207 438.484 171.832 435.617 168.969Z" fill="#F1F1F1"/>
<path d="M654.426 26.2344C654.426 26.2344 789.383 82.4062 829.684 191C869.98 299.594 854.984 356.699 854.984 356.699C854.984 356.699 840.93 369.805 839.992 358.57C839.059 347.336 845.617 239.68 800.633 162.914C746.547 70.6211 654.426 26.2344 654.426 26.2344Z" fill="#FFC552"/>
<path d="M251.172 239.543C251.172 239.543 261.301 226.625 264.105 228.387C266.91 230.152 260.629 235.43 262.812 236.066C265 236.699 277.055 227.895 280.043 230.66C282.586 233.012 268.242 238.594 268.988 239.285C269.738 239.973 282.937 238.609 284.305 240.426C285.672 242.246 281.285 244.285 272.469 243.613C272.469 243.613 268.715 243.469 269.027 244.031C269.336 244.594 281.395 247.16 280.883 248.902C280.371 250.652 277.188 250.199 267.879 247.961C267.879 247.961 266.133 247.453 266.879 248.145C267.625 248.832 277.297 253.07 273.598 254.363C269.902 255.656 237.184 238.945 237.184 238.945L251.172 239.543Z" fill="#EE7461"/>
<path d="M131.457 122.656C144.309 110.621 167.316 107.504 179.352 106.699C179.797 110.434 180.414 114.141 181.176 117.828L172.801 133.746C179.625 160.84 171.789 202.277 171.789 202.277L251.516 238.223C252.371 241.789 250.715 247.465 250.715 247.465C231.172 252.668 163.5 248.641 143.016 231.258C120.227 211.922 113 139.938 131.457 122.656Z" fill="#562F5E"/>
</svg>
